<?xml version="1.0" encoding="UTF-8"?>
<svg width="305px" height="291px" viewBox="0 0 305 291" version="1.1" xmlns="http://www.w3.org/2000/svg" xmlns:xlink="http://www.w3.org/1999/xlink">
    <!-- Generator: Sketch 48.2 (47327) - http://www.bohemiancoding.com/sketch -->
    <title>Untitled</title>
    <desc>Created with Sketch.</desc>
    <defs></defs>
    <g id="Page-1" stroke="none" stroke-width="1" fill="none" fill-rule="evenodd">
        <g id="icon-only-orange">
            <g id="Group">
                <rect id="Rectangle-path" x="0.328" y="0.496" width="304.003" height="290.003"></rect>
                <path d="M139.095,151.476 L58.8,51.998 L158.277,132.296 C164.138,137.03 165.054,145.616 160.322,151.476 C155.592,157.339 147.004,158.257 141.142,153.523 C140.394,152.917 139.681,152.194 139.095,151.476 Z" id="Shape" fill="#FF5A00" fill-rule="nonzero"></path>
                <path d="M70.824,96.929 C68.808,101.992 67.094,107.085 65.959,112.281 C64.73,117.437 63.971,122.652 63.688,127.844 C63.131,138.227 64.221,148.5 67.03,158.137 C72.516,177.457 84.671,194.004 100.442,204.785 C108.286,210.187 116.989,214.129 126.038,216.504 C135.104,218.801 144.505,219.664 153.731,218.774 C162.94,217.891 171.993,215.567 180.274,211.594 C188.59,207.735 196.196,202.403 202.659,195.864 C209.182,189.391 214.54,181.798 218.376,173.469 C222.34,165.192 224.682,156.141 225.54,146.934 C226.442,137.711 225.561,128.317 223.269,119.254 C222.109,114.723 220.499,110.297 218.535,106.016 C216.594,101.723 214.267,97.578 211.555,93.668 C200.778,77.906 184.248,65.754 164.936,60.262 C155.305,57.449 145.034,56.356 134.657,56.907 C129.464,57.188 124.249,57.942 119.093,59.173 C113.894,60.298 108.8,62.013 103.738,64.025 C120.929,50.569 144.476,44.311 167.525,47.186 C179.05,48.61 190.463,52.25 200.88,57.978 C211.312,63.689 220.702,71.419 228.462,80.666 C244.114,99.135 252.421,123.99 251.218,148.607 C250.667,160.923 247.751,173.158 242.782,184.521 C237.743,195.865 230.559,206.251 221.835,215.037 C213.037,223.748 202.664,230.959 191.31,235.967 C179.947,240.928 167.714,243.865 155.402,244.389 C130.785,245.604 105.953,237.268 87.484,221.631 C85.15,219.682 82.98,217.701 80.802,215.479 C80.259,214.924 79.657,214.327 79.241,213.858 L77.755,212.241 C76.755,211.132 75.776,209.995 74.827,208.839 C71.026,204.226 67.639,199.276 64.809,194.054 C59.084,183.644 55.444,172.238 54.02,160.714 C51.14,137.671 57.386,114.132 70.824,96.929 Z" id="Shape" fill="#FF5A00" fill-rule="nonzero"></path>
            </g>
        </g>
    </g>
</svg>