<svg xmlns="http://www.w3.org/2000/svg" 
    xmlns:xlink="http://www.w3.org/1999/xlink" width="20" height="20" viewBox="0 0 20 20">
    <defs>
        <style>.a{fill:#aaa;}.b{clip-path:url(#a);}</style>
        <clipPath id="a">
            <path class="a" d="M0,0H20V20H0Z"/>
        </clipPath>
    </defs>
    <g class="b">
        <path class="a" d="M18,8.933H12.35l2.283-2.35A5.866,5.866,0,0,0,6.4,6.5a5.729,5.729,0,0,0,0,8.158,5.85,5.85,0,0,0,8.233,0,5.428,5.428,0,0,0,1.7-4.075H18a7.784,7.784,0,0,1-2.2,5.242,7.545,7.545,0,0,1-10.6,0A7.366,7.366,0,0,1,5.184,5.342a7.489,7.489,0,0,1,10.542,0L18,3ZM10.917,7.167v3.542l2.917,1.733-.6,1.008L9.667,11.333V7.167Z" transform="translate(-0.5 -0.5)"/>
    </g>
</svg>
