<svg xmlns="http://www.w3.org/2000/svg" width="22.651" height="22.651" viewBox="0 0 22.651 22.651">
    <g transform="translate(0 0)">
        <path fill="none" d="M0,0H22.651V22.651H0Z"/>
        <path fill="#979797" d="M3.913,5.825H2V19.215a1.918,1.918,0,0,0,1.913,1.913H17.3V19.215H3.913ZM19.215,2H7.738A1.918,1.918,0,0,0,5.825,3.913V15.389A1.918,1.918,0,0,0,7.738,17.3H19.215a1.918,1.918,0,0,0,1.913-1.913V3.913A1.918,1.918,0,0,0,19.215,2Zm0,13.389H7.738V3.913H19.215Zm-6.695-.956h1.913V10.607h3.825V8.695H14.433V4.869H12.52V8.695H8.695v1.913H12.52Z" transform="translate(-0.238 -0.238)"/>
    </g>
</svg>
