<svg xmlns="http://www.w3.org/2000/svg" width="53.815" height="63.682" viewBox="0 0 53.815 63.682">
    <path fill="#fff" d="M82.676,30.14a6.386,6.386,0,0,0-4.055-5.9V18.589a19.153,19.153,0,0,0-7.562-15.2L66.573,0,62.087,3.392a19.153,19.153,0,0,0-7.562,15.2v5.652a6.386,6.386,0,0,0-4.055,5.9l-10.8,11.425v8.585h16.9c-.723,1.946-1.23,4.52-.066,6.6l.534.955h3.142a10.2,10.2,0,0,0,5.715,5.708l.681.267.681-.267a10.2,10.2,0,0,0,5.715-5.708h3.142l.534-.955c1.164-2.083.657-4.657-.066-6.6h16.9V41.565Zm-12.753.04V46.418h-6.7V30.179a6.387,6.387,0,0,0-4.967-6.218V18.688H74.89v5.273A6.387,6.387,0,0,0,69.923,30.179ZM64.337,6.368l2.236-1.691,2.236,1.69a15.407,15.407,0,0,1,5.638,8.589H58.7A15.407,15.407,0,0,1,64.337,6.368ZM43.4,46.418V43.049l7.072-7.479V46.418Zm10.8,0V30.179a2.646,2.646,0,0,1,5.292,0V46.418Zm19.409,7.558H71.622l-1.552-.029-.277,1.526a6.656,6.656,0,0,1-3.221,4.154,6.657,6.657,0,0,1-3.221-4.154l-.272-1.5H59.537a9.243,9.243,0,0,1,1.093-3.827H72.515a9.242,9.242,0,0,1,1.093,3.827Zm5.338-7.558H73.653V30.179a2.646,2.646,0,0,1,5.292,0Zm10.8,0H82.677V35.571l7.072,7.479Z" transform="translate(-39.665 0)"/>
</svg>
