<svg xmlns="http://www.w3.org/2000/svg" width="22.651" height="22.651" viewBox="0 0 22.651 22.651">
    <g transform="translate(0 0)">
        <path fill="none" d="M0,0H22.651V22.651H0Z"/>
        <path fill="#979797" d="M19.107,3H5.013A2.019,2.019,0,0,0,3,5.013V19.107a2.019,2.019,0,0,0,2.013,2.013H19.107a2.019,2.019,0,0,0,2.013-2.013V5.013A2.019,2.019,0,0,0,19.107,3Zm0,16.107H5.013V5.013H19.107Zm-12.08-9.06H9.04v7.047H7.027Zm4.027-3.02h2.013V17.094H11.054Zm4.027,6.04h2.013v4.027H15.08Z" transform="translate(-0.735 -0.735)"/>
    </g>
</svg>
