<svg xmlns="http://www.w3.org/2000/svg" width="24.001" height="21.078" viewBox="0 0 24.001 21.078">
    <path fill="#aaa" stroke="stroke:rgba(0,0,0,0)" d="M-6347.261,18.7l-2.3-3.078h-6.2A2.252,2.252,0,0,1-6358,13.364V1.253A2.252,2.252,0,0,1-6355.756-1h18.513A2.251,2.251,0,0,1-6335,1.253v12.11a2.251,2.251,0,0,1-2.244,2.254h-6.2l-2.3,3.078a.954.954,0,0,1-.762.383A.956.956,0,0,1-6347.261,18.7ZM-6356,1.012a.339.339,0,0,0-.1.241v12.11a.341.341,0,0,0,.34.341h6.673a.952.952,0,0,1,.761.382l1.822,2.44,1.822-2.44a.956.956,0,0,1,.762-.382h6.673a.341.341,0,0,0,.34-.341V1.253a.341.341,0,0,0-.34-.341h-18.513A.336.336,0,0,0-6356,1.012Zm5.191,11.578a.955.955,0,0,1-.952-.956,5.271,5.271,0,0,1,.833-2.851,5.291,5.291,0,0,1,1.781-1.714,3.562,3.562,0,0,1-.893-2.356,3.548,3.548,0,0,1,3.535-3.551,3.547,3.547,0,0,1,3.536,3.551,3.559,3.559,0,0,1-.893,2.356,5.3,5.3,0,0,1,1.783,1.714,5.275,5.275,0,0,1,.833,2.851.955.955,0,0,1-.952.956Zm1.089-1.913h6.433a3.352,3.352,0,0,0-3.217-2.413A3.351,3.351,0,0,0-6349.716,10.677Zm1.584-5.964a1.637,1.637,0,0,0,1.631,1.639,1.637,1.637,0,0,0,1.632-1.639,1.637,1.637,0,0,0-1.632-1.639A1.637,1.637,0,0,0-6348.131,4.713Z" transform="translate(6358.5 1.5)"/>
</svg>
