<svg xmlns="http://www.w3.org/2000/svg" width="22" height="22" viewBox="0 0 22 22">
    <path fill="#979797" d="M11,0A11.043,11.043,0,0,0,0,11,11.417,11.417,0,0,0,8.422,22V18.361A2.649,2.649,0,0,1,5.453,17.04c-.25-.422-.693-.879-1.155-.845l-.113-1.284a2.651,2.651,0,0,1,2.377,1.471,1.425,1.425,0,0,0,.827.707A1.733,1.733,0,0,0,8.471,17a3.021,3.021,0,0,1,.758-1.55h0C6.363,15.017,5.221,13.5,4.768,12.3a5.047,5.047,0,0,1,.784-4.841A.173.173,0,0,0,5.6,7.323a4.22,4.22,0,0,1,.128-2.817,4.454,4.454,0,0,1,2.441.919l.309.186c.129.077.089.033.218.023A9.335,9.335,0,0,1,11,5.309a9.376,9.376,0,0,1,2.34.333l.1.01c-.009,0,.027-.006.087-.042C15.761,4.258,15.681,4.7,16.28,4.5a4.292,4.292,0,0,1,.125,2.818,5.278,5.278,0,0,1,.827,4.974c-.453,1.2-1.595,2.72-4.46,3.148h0a2.829,2.829,0,0,1,.806,2.012V22A11.417,11.417,0,0,0,22,11,11.043,11.043,0,0,0,11,0Zm0,0"/>
</svg>
