<svg xmlns="http://www.w3.org/2000/svg" width="20" height="20" viewBox="0 0 20 20">
    <path fill="#aaa" d="M11.362-2.742a9.909,9.909,0,0,0-14.123,0,10,10,0,1,0,14.123,0ZM2.8,10.081a1.4,1.4,0,0,1,.355-1.043,5.982,5.982,0,0,0,.428-.615c.076-.118.176-.264.294-.443L4.063,7.7,2.844,7.506A3.967,3.967,0,0,1-.5,5.213,3.676,3.676,0,0,1,.066,1.69.907.907,0,0,0,.242.815a3.334,3.334,0,0,1-.08-1.36,4.974,4.974,0,0,1,1.25.627c.08.05.157.1.233.145a.923.923,0,0,0,.512.141h.057l.034,0L2.282.364C2.363.349,2.454.326,2.55.3A7,7,0,0,1,4.315.07,6.771,6.771,0,0,1,6.169.337L6.2.345h.034a.439.439,0,0,1,.053.008,1.085,1.085,0,0,0,.18.015A.927.927,0,0,0,6.956.223l0,0L7.181.081a4.906,4.906,0,0,1,1.257-.63A3.356,3.356,0,0,1,8.358.815a.917.917,0,0,0,.176.875A3.669,3.669,0,0,1,9.1,5.209,3.953,3.953,0,0,1,5.752,7.5l-1.215.191.187.283c.115.176.21.317.287.436a5.746,5.746,0,0,0,.436.623A1.4,1.4,0,0,1,5.8,10.078v2.5a8.5,8.5,0,0,1-3,0v-2.5Zm4.585,2.041V10.081a3.221,3.221,0,0,0-.229-1.272,5.018,5.018,0,0,0,3.424-3.042A5.251,5.251,0,0,0,9.955.941a3.934,3.934,0,0,0-.3-2.644,1.115,1.115,0,0,0-.932-.478H8.7a4.971,4.971,0,0,0-2.346.925l-.015.011A8.3,8.3,0,0,0,4.285-1.5a8.006,8.006,0,0,0-2.018.26A5.125,5.125,0,0,0-.152-2.181H-.159a1.1,1.1,0,0,0-.9.481,3.957,3.957,0,0,0-.3,2.644,5.093,5.093,0,0,0-.894,2.274,5.175,5.175,0,0,0,.271,2.553A5.018,5.018,0,0,0,1.446,8.813a2.746,2.746,0,0,0-.187.7,1.57,1.57,0,0,1-.424.069A.921.921,0,0,1,.578,9.55a1.051,1.051,0,0,1-.611-.531A2.611,2.611,0,0,0-2.177,7.6c-.057,0-.118,0-.176.008l-.214.019L-2.429,9.2l.218-.019h.031c.279,0,.608.336.791.65A2.618,2.618,0,0,0,.131,11.071a2.519,2.519,0,0,0,.73.107,2.879,2.879,0,0,0,.359-.023v.978a8.443,8.443,0,0,1-3.745-2.9A8.307,8.307,0,0,1-4.118,4.338,8.413,8.413,0,0,1-1.642-1.627a8.332,8.332,0,0,1,11.891,0,8.413,8.413,0,0,1,2.476,5.965,8.247,8.247,0,0,1-1.593,4.883A8.474,8.474,0,0,1,7.384,12.122Z" transform="translate(5.7 5.7)"/>
</svg>
