<svg xmlns="http://www.w3.org/2000/svg" width="19.187" height="19.204" viewBox="0 0 19.187 19.204">
    <g transform="translate(0)">
        <path fill="#f3a449" d="M415.386,147.414a3.261,3.261,0,0,0-1.6-1.1v-1.524q0-2.666,0-5.332a3.877,3.877,0,0,0-.07-.768,3.319,3.319,0,0,0-3.363-2.7l-.782,0-1.469,0,1.042-1.034-1.335-1.344-.141.1-.023.015a.383.383,0,0,0-.075.057l-.642.641c-.613.611-1.247,1.243-1.865,1.87a.975.975,0,0,0,.047,1.447l.735.736q.555.554,1.107,1.11c.153.154.3.314.442.469l.184.2.145.155,1.479-1.483-.987-.939,1.161,0c.353,0,.7,0,1.056,0a1.32,1.32,0,0,1,1.363,1.374q0,1.574,0,3.148,0,1.871,0,3.741a.272.272,0,0,1-.005.065h0a.259.259,0,0,1-.079.036,3.319,3.319,0,0,0,1.065,6.465,3.466,3.466,0,0,0,.5-.037,3.17,3.17,0,0,0,2.591-2.039A3.21,3.21,0,0,0,415.386,147.414Zm-1.252,2.083a1.332,1.332,0,0,1-1.351,1.339h-.025a1.349,1.349,0,0,1,.024-2.7h.02a1.35,1.35,0,0,1,.959.411A1.318,1.318,0,0,1,414.135,149.5Z" transform="translate(-396.944 -133.608)"/>
        <path fill="#f3a449" d="M354.34,146.623a.243.243,0,0,1-.072-.032.248.248,0,0,1-.009-.091c.005-2.065,0-4.084,0-6a.348.348,0,0,1,.005-.072.217.217,0,0,1,.071-.032,3.322,3.322,0,0,0-1.066-6.47,3.451,3.451,0,0,0-.467.032,3.318,3.318,0,0,0-1.046,6.252c.145.073.294.133.438.191l.067.027v6.162l-.078.026a3.323,3.323,0,0,0,1.084,6.468,3.518,3.518,0,0,0,.471-.032,3.318,3.318,0,0,0,.6-6.432Zm-2.425,3.117a1.331,1.331,0,0,1,1.344-1.326h.021a1.353,1.353,0,0,1,.963.41,1.338,1.338,0,0,1,.372.967,1.357,1.357,0,0,1-1.353,1.322h0a1.346,1.346,0,0,1-1.346-1.373Zm1.358-14.039h0v.2a1.35,1.35,0,1,1-1.359,1.369,1.332,1.332,0,0,1,.381-.96,1.355,1.355,0,0,1,.969-.408Z" transform="translate(-349.927 -133.882)"/>
    </g>
</svg>