<svg xmlns="http://www.w3.org/2000/svg" width="22.651" height="22.651" viewBox="0 0 22.651 22.651">
    <g transform="translate(0 0)">
        <path fill="none" d="M0,0H22.651V22.651H0Z"/>
        <path fill="#979797" d="M19.107,2H5.013A1.978,1.978,0,0,0,3,3.941v13.59a1.978,1.978,0,0,0,2.013,1.941H9.04l3.02,2.912,3.02-2.912h4.027a1.984,1.984,0,0,0,2.013-1.941V3.941A1.984,1.984,0,0,0,19.107,2Zm0,15.532H14.245l-.594.573L12.06,19.638l-1.6-1.543-.584-.563H5.013V3.941H19.107ZM11.054,14.62h2.013v1.941H11.054ZM12.06,6.854A1.984,1.984,0,0,1,14.074,8.8c0,1.941-3.02,1.7-3.02,4.854h2.013c0-2.184,3.02-2.427,3.02-4.854A3.956,3.956,0,0,0,12.06,4.912,3.956,3.956,0,0,0,8.033,8.8h2.013A1.984,1.984,0,0,1,12.06,6.854Z" transform="translate(-0.735 -0.49)"/>
    </g>
</svg>
