<svg xmlns="http://www.w3.org/2000/svg" width="24" height="24" viewBox="0 0 24 24">
    <path fill="none" d="M0,0H24V24H0Z"/>
    <path fill="#89bc51" d="M11,15a11.731,11.731,0,0,1-6.726-2.1A11.837,11.837,0,0,1,0,7.5a11.818,11.818,0,0,1,22,0,11.836,11.836,0,0,1-4.273,5.4A11.731,11.731,0,0,1,11,15ZM11,2A9.756,9.756,0,0,0,2.18,7.5a9.822,9.822,0,0,0,17.64,0A9.754,9.754,0,0,0,11,2ZM8.124,10.958l0,0A4.5,4.5,0,1,1,14.766,5.04L13.151,6.225A2.5,2.5,0,1,0,9.139,9.169l-1.313.964.3.822Z" transform="translate(1 4.5)"/>
    <rect fill="#89bc51" width="27" height="2" transform="matrix(0.788, -0.616, 0.616, 0.788, 1.14, 19.216)"/>
</svg>
