<svg xmlns="http://www.w3.org/2000/svg" width="22.651" height="22.651" viewBox="0 0 22.651 22.651">
    <g transform="translate(22.651 22.651) rotate(180)">
        <path fill="none" d="M0,0H22.651V22.651H0Z"/>
        <path fill="#979797" d="M10.137,15.674l1.419,1.419L16.59,12.06,11.557,7.027,10.137,8.446l2.6,2.607H3v2.013h9.735ZM19.107,3H5.013A2.013,2.013,0,0,0,3,5.013V9.04H5.013V5.013H19.107V19.107H5.013V15.08H3v4.027a2.013,2.013,0,0,0,2.013,2.013H19.107a2.019,2.019,0,0,0,2.013-2.013V5.013A2.019,2.019,0,0,0,19.107,3Z" transform="translate(-0.735 -0.735)"/>
    </g>
</svg>
