<?xml version="1.0" encoding="UTF-8"?>
<svg width="1284px" height="291px" viewBox="0 0 1284 291" version="1.1" xmlns="http://www.w3.org/2000/svg" xmlns:xlink="http://www.w3.org/1999/xlink">
    <!-- Generator: Sketch 49.2 (51160) - http://www.bohemiancoding.com/sketch -->
    <title>Untitled</title>
    <desc>Created with Sketch.</desc>
    <defs></defs>
    <g id="Page-1" stroke="none" stroke-width="1" fill="none" fill-rule="evenodd">
        <g id="logo-horizontal-std">
            <g id="Group">
                <g id="Shape" transform="translate(304.000000, 92.000000)" fill="#4D4D4D" fill-rule="nonzero">
                    <path d="M89.103,49.55 C89.531,74.597 74.246,99.925 39.58,99.925 C27.41,99.925 12.836,99.925 0.666,99.925 L0.666,0.874 C12.836,0.874 27.41,0.874 39.58,0.874 C73.54,0.874 88.679,25.071 89.103,49.55 Z M19.202,81.954 L39.579,81.954 C62.077,81.954 70.991,65.54 70.567,49.409 C70.143,33.985 61.087,18.561 39.579,18.561 L19.202,18.561 L19.202,81.954 Z"></path>
                    <path d="M151.763,30.163 L168.318,30.163 L168.318,99.925 L152.047,99.925 L151.197,89.736 C147.234,97.945 136.338,101.906 128.556,102.047 C107.898,102.19 92.615,89.455 92.615,64.975 C92.615,40.92 108.605,28.325 128.98,28.467 C138.32,28.467 147.234,32.854 151.197,39.787 L151.763,30.163 Z M109.878,64.974 C109.878,78.277 119.075,86.199 130.536,86.199 C157.704,86.199 157.704,43.89 130.536,43.89 C119.075,43.89 109.878,51.673 109.878,64.974 Z"></path>
                    <path d="M221.374,48.7 C216.421,44.03 210.761,42.475 204.11,42.475 C195.903,42.475 191.374,45.022 191.374,49.409 C191.374,53.936 195.478,56.483 204.394,57.048 C217.554,57.898 234.251,60.87 234.251,79.407 C234.251,91.716 224.204,102.329 204.251,102.329 C193.216,102.329 182.177,100.491 171.991,89.878 L180.479,77.567 C185.43,83.087 196.752,87.19 204.534,87.331 C211.044,87.472 217.13,84.077 217.13,78.981 C217.13,74.17 213.167,72.19 203.261,71.624 C190.103,70.634 174.396,65.823 174.396,49.976 C174.396,33.843 191.093,28.183 203.828,28.183 C214.723,28.183 222.932,30.306 230.998,37.38 L221.374,48.7 Z"></path>
                    <path d="M255.47,0.874 L255.47,39.644 C261.697,31.58 269.337,29.173 277.261,29.173 C297.072,29.173 305.845,42.616 305.845,63.134 L305.845,99.925 L288.583,99.925 L288.583,63.277 C288.583,50.541 281.931,45.164 272.733,45.164 C262.545,45.164 255.469,53.797 255.469,64.268 L255.469,99.926 L238.205,99.926 L238.205,0.875 L255.47,0.875 L255.47,0.874 Z"></path>
                    <path d="M330.601,1.015 L330.601,39.644 C334.705,32.429 346.165,28.466 353.525,28.466 C373.902,28.466 389.041,40.919 389.041,64.974 C389.041,87.898 373.617,101.482 353.1,101.482 C344.612,101.482 335.979,98.65 330.602,90.302 L329.469,99.925 L313.338,99.925 L313.338,1.015 L330.601,1.015 Z M331.733,64.974 C331.733,77.568 341.071,85.492 351.967,85.492 C363.004,85.492 371.778,77.144 371.778,64.974 C371.778,52.38 363.005,44.597 351.967,44.597 C341.071,44.597 331.733,52.804 331.733,64.974 Z"></path>
                    <path d="M465.995,65.114 C465.995,85.21 452.268,101.481 429.628,101.481 C406.989,101.481 393.403,85.21 393.403,65.114 C393.403,45.163 407.27,28.749 429.487,28.749 C451.704,28.749 465.995,45.163 465.995,65.114 Z M410.667,65.114 C410.667,75.727 417.036,85.634 429.628,85.634 C442.224,85.634 448.591,75.728 448.591,65.114 C448.591,54.643 441.234,44.456 429.628,44.456 C417.177,44.456 410.667,54.644 410.667,65.114 Z"></path>
                    <path d="M529.507,30.163 L546.061,30.163 L546.061,99.925 L529.789,99.925 L528.941,89.736 C524.978,97.945 514.082,101.906 506.3,102.047 C485.64,102.19 470.359,89.455 470.359,64.975 C470.359,40.92 486.349,28.325 506.724,28.467 C516.064,28.467 524.978,32.854 528.941,39.787 L529.507,30.163 Z M487.62,64.974 C487.62,78.277 496.819,86.199 508.28,86.199 C535.447,86.199 535.447,43.89 508.28,43.89 C496.819,43.89 487.62,51.673 487.62,64.974 Z"></path>
                    <path d="M569.541,30.163 L570.816,38.229 C576.193,29.598 583.408,28.323 590.484,28.323 C597.701,28.323 604.634,31.155 608.455,34.975 L600.674,49.975 C597.137,47.002 593.881,45.446 588.221,45.446 C579.164,45.446 570.817,50.257 570.817,63.134 L570.817,99.925 L553.553,99.925 L553.553,30.163 L569.541,30.163 Z"></path>
                    <path d="M680.33,1.015 L680.33,99.925 L664.201,99.925 L663.068,90.302 C657.691,98.65 649.058,101.482 640.568,101.482 C620.052,101.482 604.627,87.898 604.627,64.974 C604.627,40.919 619.768,28.466 640.145,28.466 C647.502,28.466 658.963,32.429 663.069,39.644 L663.069,1.015 L680.33,1.015 Z M621.891,64.974 C621.891,77.144 630.664,85.492 641.702,85.492 C652.597,85.492 661.936,77.568 661.936,64.974 C661.936,52.804 652.596,44.597 641.702,44.597 C630.664,44.597 621.891,52.38 621.891,64.974 Z"></path>
                    <polygon points="762.537 99.925 762.537 54.925 699.428 54.925 699.428 99.925 691.787 99.925 691.787 0.874 699.428 0.874 699.428 47.991 762.537 47.991 762.537 0.874 770.18 0.874 770.18 99.925"></polygon>
                    <path d="M837.811,99.925 L837.811,87.331 C832.432,96.954 822.668,100.915 812.905,101.058 C794.225,101.058 781.35,89.595 781.35,70.21 L781.35,29.88 L788.284,29.88 L788.284,70.068 C788.284,85.916 798.048,94.406 813.188,94.265 C827.622,94.124 837.668,83.226 837.668,68.794 L837.668,29.88 L844.602,29.88 L844.602,99.925 L837.811,99.925 Z"></path>
                    <path d="M862.566,0.874 L862.566,45.306 C868.224,33.986 879.545,28.89 891.572,28.89 C911.101,28.89 926.666,41.91 926.666,64.974 C926.666,88.179 911.242,101.058 891.715,101.058 C879.828,101.058 868.367,95.113 862.567,84.501 L862.567,99.925 L855.772,99.925 L855.772,0.874 L862.566,0.874 Z M862.705,64.831 C862.705,82.237 874.877,94.265 891.291,94.265 C906.996,94.265 919.873,84.359 919.873,64.974 C919.873,45.306 906.996,35.542 891.291,35.542 C875.158,35.542 862.705,47.429 862.705,64.831 Z"></path>
                </g>
                <path d="M139.104,151.476 L58.809,51.999 L158.286,132.296 C164.147,137.03 165.063,145.616 160.331,151.476 C155.601,157.339 147.013,158.257 141.151,153.525 C140.403,152.919 139.69,152.194 139.104,151.476 Z" id="Shape" fill="#FF5A00" fill-rule="nonzero"></path>
                <path d="M70.833,96.931 C68.817,101.992 67.103,107.087 65.968,112.281 C64.739,117.439 63.98,122.654 63.697,127.845 C63.14,138.228 64.23,148.499 67.039,158.136 C72.525,177.458 84.68,194.005 100.451,204.784 C108.295,210.186 116.998,214.128 126.047,216.503 C135.113,218.802 144.514,219.663 153.74,218.774 C162.949,217.891 172.002,215.567 180.283,211.594 C188.599,207.733 196.205,202.403 202.668,195.862 C209.191,189.389 214.549,181.798 218.385,173.467 C222.35,165.192 224.692,156.141 225.549,146.934 C226.451,137.709 225.57,128.317 223.278,119.254 C222.118,114.721 220.508,110.295 218.544,106.014 C216.603,101.721 214.276,97.578 211.564,93.668 C200.787,77.904 184.257,65.752 164.945,60.26 C155.314,57.449 145.043,56.354 134.666,56.906 C129.473,57.187 124.258,57.939 119.102,59.17 C113.903,60.297 108.809,62.01 103.747,64.022 C120.938,50.567 144.485,44.309 167.534,47.184 C179.059,48.608 190.472,52.248 200.889,57.975 C211.321,63.688 220.711,71.416 228.471,80.663 C244.123,99.134 252.43,123.987 251.227,148.604 C250.676,160.92 247.76,173.155 242.791,184.52 C237.752,195.862 230.568,206.25 221.844,215.036 C213.045,223.745 202.672,230.956 191.319,235.964 C179.956,240.925 167.723,243.862 155.411,244.386 C130.794,245.601 105.962,237.265 87.493,221.63 C85.159,219.679 82.989,217.698 80.811,215.478 C80.268,214.923 79.666,214.324 79.25,213.855 L77.764,212.24 C76.764,211.129 75.785,209.992 74.836,208.838 C71.035,204.223 67.648,199.275 64.818,194.053 C59.093,183.643 55.453,172.237 54.029,160.711 C51.149,137.671 57.396,114.132 70.833,96.931 Z" id="Shape" fill="#FF5A00" fill-rule="nonzero"></path>
                <rect id="Rectangle-path" x="0.337" y="0.497" width="1283.331" height="290.006"></rect>
            </g>
        </g>
    </g>
</svg>
