<svg xmlns="http://www.w3.org/2000/svg" width="24.386" height="24.386" viewBox="0 0 24.386 24.386">
    <path fill="none" d="M0,0H24.386V24.386H0Z"/>
    <path fill="#979797" d="M10.684,16.646l1.528,1.528,5.419-5.419L12.213,7.335,10.684,8.864l2.8,2.807H3v2.168H13.481ZM20.341,3H5.168A2.167,2.167,0,0,0,3,5.168V9.5H5.168V5.168H20.341V20.341H5.168V16.006H3v4.335a2.167,2.167,0,0,0,2.168,2.168H20.341a2.174,2.174,0,0,0,2.168-2.168V5.168A2.174,2.174,0,0,0,20.341,3Z" transform="translate(-0.561 -0.561)"/>
</svg>
