<svg xmlns="http://www.w3.org/2000/svg" width="198.138" height="31.324" viewBox="0 0 198.138 31.324">
  <g id="Group_246" data-name="Group 246" transform="translate(-24.829 -16.363)">
    <path id="Path_2129" data-name="Path 2129" d="M319.275,100.915c.071,4.138-2.454,8.321-8.181,8.321h-6.428V92.874h6.428C316.7,92.874,319.2,96.871,319.275,100.915Zm-11.547,5.353h3.366c3.717,0,5.189-2.711,5.119-5.376-.07-2.548-1.566-5.1-5.119-5.1h-3.366Z" transform="translate(-234.666 -68.858)" fill="#fff"/>
    <path id="Path_2130" data-name="Path 2130" d="M406.386,120.746h2.735V132.27h-2.688l-.14-1.683a4.379,4.379,0,0,1-3.74,2.034c-3.413.024-5.937-2.08-5.937-6.124a5.611,5.611,0,0,1,6.007-6.031,4.231,4.231,0,0,1,3.67,1.87Zm-6.919,5.75A3.3,3.3,0,0,0,402.879,130c4.488,0,4.488-6.989,0-6.989A3.282,3.282,0,0,0,399.467,126.5Z" transform="translate(-311.426 -91.892)" fill="#fff"/>
    <path id="Path_2131" data-name="Path 2131" d="M484.149,123.572a3.886,3.886,0,0,0-2.852-1.028c-1.356,0-2.1.421-2.1,1.145,0,.748.678,1.169,2.151,1.262,2.174.14,4.932.631,4.932,3.693,0,2.033-1.66,3.787-4.956,3.787a6.742,6.742,0,0,1-5.329-2.057l1.4-2.034a6.321,6.321,0,0,0,3.974,1.613c1.075.023,2.081-.538,2.081-1.379,0-.795-.655-1.122-2.291-1.215-2.174-.164-4.768-.958-4.768-3.576,0-2.665,2.758-3.6,4.862-3.6a6.19,6.19,0,0,1,4.488,1.519Z" transform="translate(-377.69 -91.656)" fill="#fff"/>
    <path id="Path_2132" data-name="Path 2132" d="M545.057,92.874v6.4a4.256,4.256,0,0,1,3.6-1.73c3.273,0,4.722,2.221,4.722,5.61v6.078h-2.851v-6.054c0-2.1-1.1-2.992-2.618-2.992a2.954,2.954,0,0,0-2.852,3.156v5.89H542.2V92.874h2.852Z" transform="translate(-432.966 -68.858)" fill="#fff"/>
    <path id="Path_2133" data-name="Path 2133" d="M620.19,93.015V99.4a4.771,4.771,0,0,1,3.787-1.846c3.366,0,5.867,2.057,5.867,6.031a5.655,5.655,0,0,1-5.937,6.031,4.194,4.194,0,0,1-3.717-1.847l-.187,1.59h-2.665V93.015Zm.187,10.565a3.309,3.309,0,1,0,6.615,0,3.179,3.179,0,0,0-3.273-3.366A3.288,3.288,0,0,0,620.377,103.58Z" transform="translate(-495.688 -68.976)" fill="#fff"/>
    <path id="Path_2134" data-name="Path 2134" d="M709.394,126.756a6,6,0,1,1-6.031-6.007A5.826,5.826,0,0,1,709.394,126.756Zm-9.14,0a3.142,3.142,0,1,0,6.265,0,3.254,3.254,0,0,0-3.132-3.412A3.167,3.167,0,0,0,700.255,126.756Z" transform="translate(-562.526 -92.129)" fill="#fff"/>
    <path id="Path_2135" data-name="Path 2135" d="M784.13,120.746h2.734V132.27h-2.688l-.14-1.683a4.379,4.379,0,0,1-3.74,2.034c-3.413.024-5.937-2.08-5.937-6.124a5.611,5.611,0,0,1,6.007-6.031,4.231,4.231,0,0,1,3.67,1.87Zm-6.919,5.75A3.3,3.3,0,0,0,780.623,130c4.488,0,4.488-6.989,0-6.989A3.282,3.282,0,0,0,777.21,126.5Z" transform="translate(-626.77 -91.892)" fill="#fff"/>
    <path id="Path_2136" data-name="Path 2136" d="M860.194,120.627l.211,1.332a3.4,3.4,0,0,1,3.249-1.636,4.373,4.373,0,0,1,2.969,1.1l-1.285,2.478a2.848,2.848,0,0,0-2.057-.748,2.659,2.659,0,0,0-2.875,2.922v6.078h-2.852V120.627Z" transform="translate(-696.221 -91.773)" fill="#fff"/>
    <path id="Path_2137" data-name="Path 2137" d="M921.132,93.015v16.339h-2.664l-.187-1.59a4.194,4.194,0,0,1-3.717,1.847,5.655,5.655,0,0,1-5.937-6.031c0-3.974,2.5-6.031,5.867-6.031a4.773,4.773,0,0,1,3.787,1.846V93.015Zm-9.654,10.565a3.308,3.308,0,1,0,6.615,0,3.289,3.289,0,0,0-3.342-3.366A3.179,3.179,0,0,0,911.479,103.58Z" transform="translate(-738.858 -68.976)" fill="#fff"/>
    <path id="Path_2138" data-name="Path 2138" d="M1007.474,109.236V101.8H997.049v7.434h-1.262V92.874h1.262v7.783h10.425V92.874h1.263v16.362Z" transform="translate(-811.62 -68.858)" fill="#fff"/>
    <path id="Path_2139" data-name="Path 2139" d="M1094.677,133.451v-2.08a4.6,4.6,0,0,1-4.114,2.268c-3.086,0-5.213-1.894-5.213-5.1V121.88h1.146v6.639c0,2.618,1.613,4.02,4.114,4a4.013,4.013,0,0,0,4.044-4.208V121.88h1.146v11.571Z" transform="translate(-886.388 -93.073)" fill="#fff"/>
    <path id="Path_2140" data-name="Path 2140" d="M1160.894,92.874v7.34a5.112,5.112,0,0,1,4.792-2.712,5.564,5.564,0,0,1,5.8,5.961c0,3.833-2.548,5.961-5.774,5.961a5.437,5.437,0,0,1-4.815-2.735v2.548h-1.122V92.874Zm.023,10.565a4.618,4.618,0,0,0,4.722,4.862,4.852,4.852,0,0,0,0-9.7A4.624,4.624,0,0,0,1160.917,103.439Z" transform="translate(-948.516 -68.858)" fill="#fff"/>
    <path id="Path_2141" data-name="Path 2141" d="M71.512,67.736,58.809,52,74.546,64.7a2.158,2.158,0,0,1-2.711,3.358A2.289,2.289,0,0,1,71.512,67.736Z" transform="translate(-33.115 -34.766)" fill="#ff5a00"/>
    <path id="Path_2142" data-name="Path 2142" d="M56.107,54.476a15.563,15.563,0,0,0-.77,2.428,13.894,13.894,0,0,0-.359,2.462,14.389,14.389,0,0,0,.529,4.792,13.412,13.412,0,0,0,5.286,7.38,12.8,12.8,0,0,0,8.43,2.213,12.458,12.458,0,0,0,4.2-1.136,12.563,12.563,0,0,0,6.028-6.032,12.376,12.376,0,0,0,1.133-4.2,12.82,12.82,0,0,0-.359-4.379,13.067,13.067,0,0,0-1.853-4.048A13.415,13.415,0,0,0,71,48.675a14.391,14.391,0,0,0-4.79-.531,13.826,13.826,0,0,0-2.462.358,15.474,15.474,0,0,0-2.429.768,13.788,13.788,0,0,1,10.091-2.664,14.744,14.744,0,0,1,5.277,1.707A15.326,15.326,0,0,1,81.045,51.9a15.627,15.627,0,0,1,3.6,10.748,16.019,16.019,0,0,1-1.335,5.682,15.991,15.991,0,0,1-8.143,8.138A15.947,15.947,0,0,1,69.487,77.8a15.621,15.621,0,0,1-10.745-3.6,14.336,14.336,0,0,1-1.057-.973c-.086-.088-.181-.183-.247-.257l-.235-.255q-.237-.264-.463-.538a14.875,14.875,0,0,1-3.292-7.614A13.8,13.8,0,0,1,56.107,54.476Z" transform="translate(-28.511 -30.135)" fill="#ff5a00"/>
  </g>
</svg>
