<svg xmlns="http://www.w3.org/2000/svg" width="24.386" height="24.386" viewBox="0 0 24.386 24.386">
    <path fill="none" d="M0,0H24.386V24.386H0Z"/>
    <path fill="#aaa" d="M12.161,2A10.161,10.161,0,1,0,22.322,12.161,10.165,10.165,0,0,0,12.161,2ZM7.152,18.542c.437-.914,3.1-1.809,5.009-1.809s4.583.894,5.009,1.809a8.053,8.053,0,0,1-10.019,0Zm11.472-1.473C17.17,15.3,13.645,14.7,12.161,14.7s-5.009.6-6.462,2.368a8.129,8.129,0,1,1,12.925,0Zm-6.462-11a3.556,3.556,0,1,0,3.556,3.556A3.547,3.547,0,0,0,12.161,6.064Zm0,5.08a1.524,1.524,0,1,1,1.524-1.524A1.522,1.522,0,0,1,12.161,11.145Z" transform="translate(0.032 0.032)"/>
</svg>
