<svg xmlns="http://www.w3.org/2000/svg" width="27.206" height="27.206" viewBox="0 0 27.206 27.206">
    <path fill="none" d="M0,0H27.206V27.206H0Z"/>
    <path fill="#fff" d="M13.069,6.267A2.267,2.267,0,1,1,10.8,8.534a2.274,2.274,0,0,1,2.267-2.267m0,10.2c3.061,0,6.575,1.462,6.8,2.267V19.87H6.267V18.748c.227-.816,3.741-2.278,6.8-2.278M13.069,4A4.534,4.534,0,1,0,17.6,8.534,4.533,4.533,0,0,0,13.069,4Zm0,10.2C10.042,14.2,4,15.721,4,18.737v3.4H22.137v-3.4C22.137,15.721,16.1,14.2,13.069,14.2Z" transform="translate(0.534 0.534)"/>
</svg>
