<svg xmlns="http://www.w3.org/2000/svg" width="15.852" height="21" viewBox="0 0 15.852 21">
    <path fill="#aaa" d="M18.12,14.44l-3.24-1.62A5.449,5.449,0,0,0,17,8.5a5.5,5.5,0,1,0-8,4.89v3.26l-1.84-.39-.1-.02a1.582,1.582,0,0,0-.32-.03,1.983,1.983,0,0,0-1.41.59l-1.4,1.42,5.09,5.09a2.315,2.315,0,0,0,1.65.69h6.3a1.989,1.989,0,0,0,1.97-1.67l.8-4.71a2.992,2.992,0,0,0-1.62-3.18Zm-.35,2.85L16.97,22h-6.3a.369.369,0,0,1-.24-.1L6.75,18.22l4.25.89V8.5a.5.5,0,0,1,1,0v6h1.76l3.46,1.73A1.007,1.007,0,0,1,17.77,17.29ZM8,8.5a3.5,3.5,0,0,1,7,0,3.464,3.464,0,0,1-1,2.44V8.5a2.5,2.5,0,0,0-5,0v2.44A3.464,3.464,0,0,1,8,8.5Z" transform="translate(-3.93 -3)"/>
</svg>
