<svg xmlns="http://www.w3.org/2000/svg" width="37.362" height="37.362" viewBox="0 0 37.362 37.362">
    <g transform="translate(0)">
        <path fill="none" d="M0,0H37.362V37.362H0Z"/>
        <path fill="#fff" d="M5.155,8.31H2V30.4A3.164,3.164,0,0,0,5.155,33.55H27.24V30.4H5.155ZM30.4,2H11.465A3.164,3.164,0,0,0,8.31,5.155v18.93a3.164,3.164,0,0,0,3.155,3.155H30.4a3.164,3.164,0,0,0,3.155-3.155V5.155A3.164,3.164,0,0,0,30.4,2Zm0,22.085H11.465V5.155H30.4ZM19.353,22.508h3.155V16.2h6.31V13.043h-6.31V6.733H19.353v6.31h-6.31V16.2h6.31Z" transform="translate(0.906 0.906)"/>
    </g>
</svg>
