<svg xmlns="http://www.w3.org/2000/svg" width="30" height="30" viewBox="0 0 30 30">
    <path fill="none" d="M0,0H28V28H0Z"/>
    <path fill="#4b89dc" d="M11.917,4.833a.578.578,0,0,1,.583.583V7.75h7v7h2.333a.583.583,0,1,1,0,1.167H19.5v7H17.027a5.48,5.48,0,0,0-10.22,0H4.333V20.443a5.484,5.484,0,0,0,.012-10.22L4.333,7.75h7V5.417a.578.578,0,0,1,.583-.583m0-2.333A2.918,2.918,0,0,0,9,5.417H4.333A2.33,2.33,0,0,0,2.012,7.75v4.433H2.35a3.15,3.15,0,0,1,0,6.3H2v4.433A2.34,2.34,0,0,0,4.333,25.25H8.767V24.9a3.15,3.15,0,1,1,6.3,0v.35H19.5a2.34,2.34,0,0,0,2.333-2.333V18.25a2.917,2.917,0,0,0,0-5.833V7.75A2.34,2.34,0,0,0,19.5,5.417H14.833A2.918,2.918,0,0,0,11.917,2.5Z" transform="translate(0.333 0.417)"/>
</svg>