<svg xmlns="http://www.w3.org/2000/svg" width="22.651" height="22.651" viewBox="0 0 22.651 22.651">
    <g transform="translate(0 0)">
        <path fill="none" d="M0,0H22.651V22.651H0Z"/>
        <path fill="#979797" d="M18.534,7.8H17.5V5.854A5.033,5.033,0,0,0,12.305,1,5.033,5.033,0,0,0,7.114,5.854V7.8H6.076A2.018,2.018,0,0,0,4,9.737v9.707a2.018,2.018,0,0,0,2.076,1.941H18.534a2.018,2.018,0,0,0,2.076-1.941V9.737A2.018,2.018,0,0,0,18.534,7.8ZM9.191,5.854a3.014,3.014,0,0,1,3.114-2.912A3.014,3.014,0,0,1,15.42,5.854V7.8H9.191Zm9.343,13.59H6.076V9.737H18.534Zm-6.229-2.912a2.018,2.018,0,0,0,2.076-1.941,2.081,2.081,0,0,0-4.153,0A2.018,2.018,0,0,0,12.305,16.532Z" transform="translate(-0.98 -0.245)"/>
    </g>
</svg>
