<svg xmlns="http://www.w3.org/2000/svg" width="64.761" height="65.936" viewBox="0 0 64.761 65.936">
    <path fill="#fff" d="M-20.5-23.861a4.927,4.927,0,0,0-3.152,4.577V-15a1.634,1.634,0,0,0,2.029,1.584l10.858-2.715v5.2A1.633,1.633,0,0,0-9.127-9.3a1.633,1.633,0,0,0,1.633-1.633v-5.29l11.212,2.8A1.633,1.633,0,0,0,5.747-15v-4.283a4.927,4.927,0,0,0-3.152-4.577l-5.664-2.162.5-10.882,24.216,2.213a1.633,1.633,0,0,0,1.781-1.626,10.458,10.458,0,0,0-7.4-10.005l-4.091-1.252v-2.455a4.9,4.9,0,0,0-4.9-4.9A4.9,4.9,0,0,0,2.17-50.566l-4.048-1.239.7-15.187a7.78,7.78,0,0,0-7.773-8.239,7.781,7.781,0,0,0-7.773,8.24l.7,15.187-4.392,1.344a4.894,4.894,0,0,0-4.879-4.47,4.9,4.9,0,0,0-4.9,4.9v2.564l-3.737,1.144a10.458,10.458,0,0,0-7.4,10.005,1.633,1.633,0,0,0,1.782,1.626l24.215-2.213.5,10.882Zm25.9-26.171a1.632,1.632,0,0,1,1.633-1.633,1.632,1.632,0,0,1,1.633,1.633v1.456l-3.266-1ZM15.073-43.2a7.155,7.155,0,0,1,4.864,5.073L-2.416-40.171l.382-8.266Zm-42-6.831a1.632,1.632,0,0,1,1.633-1.633,1.632,1.632,0,0,1,1.633,1.633v.565l-3.266,1Zm-10.912,11.9A7.154,7.154,0,0,1-32.974-43.2l17.107-5.236.382,8.266Zm26.324,13.135s-1.947-42.175-1.948-42.182a4.517,4.517,0,0,1,4.512-4.79,4.517,4.517,0,0,1,4.512,4.79L-6.387-24.994a1.633,1.633,0,0,0,1.049,1.6L1.43-20.809a1.642,1.642,0,0,1,1.051,1.526v2.191l-9.975-2.494v-.946a1.633,1.633,0,0,0-1.633-1.633,1.633,1.633,0,0,0-1.633,1.633V-19.5l-9.622,2.405v-2.191a1.642,1.642,0,0,1,1.051-1.526l6.768-2.583A1.633,1.633,0,0,0-11.515-24.994Z" transform="translate(41.331 75.232)"/>
</svg>
