<svg xmlns="http://www.w3.org/2000/svg" width="30" height="30" viewBox="0 0 30 30">
    <path style="fill:#fff;stroke:rgba(0,0,0,0);" d="M-4952.3-597.6a3.312,3.312,0,0,1-.935-2.425,3.332,3.332,0,0,1,2.26-3.03.258.258,0,0,0,.078-.035.212.212,0,0,0,.006-.066q-.005-1.869,0-3.741,0-1.572,0-3.147a1.319,1.319,0,0,0-1.363-1.373q-.525-.006-1.056,0l-1.16,0,.987.938-1.479,1.482-.146-.155-.183-.2c-.142-.155-.289-.314-.442-.469-.368-.371-.738-.74-1.108-1.11l-.735-.735a.976.976,0,0,1-.046-1.447c.618-.627,1.253-1.259,1.866-1.871l.642-.641a.359.359,0,0,1,.075-.056l.023-.015.141-.1,1.334,1.345-1.041,1.034,1.468,0c.26,0,.521,0,.781,0a3.318,3.318,0,0,1,3.364,2.7,3.828,3.828,0,0,1,.07.768q.006,2.666,0,5.332v1.524a3.26,3.26,0,0,1,1.605,1.1,3.211,3.211,0,0,1,.482,3.321,3.173,3.173,0,0,1-2.591,2.039,3.445,3.445,0,0,1-.5.037A3.3,3.3,0,0,1-4952.3-597.6Zm1.053-2.337a1.332,1.332,0,0,0,1.321,1.371h.025a1.334,1.334,0,0,0,1.352-1.339,1.321,1.321,0,0,0-.374-.948,1.357,1.357,0,0,0-.958-.411h-.02A1.338,1.338,0,0,0-4951.248-599.94Zm-13.572,2.317a3.328,3.328,0,0,1-.917-2.473,3.331,3.331,0,0,1,2.252-2.965l.079-.026v-6.162l-.067-.026c-.145-.059-.294-.12-.438-.192a3.316,3.316,0,0,1-1.773-3.557,3.331,3.331,0,0,1,2.819-2.694,3.482,3.482,0,0,1,.467-.032,3.307,3.307,0,0,1,2.388,1.008,3.307,3.307,0,0,1,.946,2.413,3.3,3.3,0,0,1-2.267,3.048.2.2,0,0,0-.072.032.522.522,0,0,0,0,.071c.006,1.914.007,3.933,0,6,0,.071.006.089.009.091a.228.228,0,0,0,.071.032,3.316,3.316,0,0,1,2.251,3.4,3.315,3.315,0,0,1-2.853,3.035,3.537,3.537,0,0,1-.471.031A3.312,3.312,0,0,1-4964.819-597.623Zm1.066-2.316a1.358,1.358,0,0,0,.385.97,1.348,1.348,0,0,0,.961.4,1.356,1.356,0,0,0,1.354-1.322,1.338,1.338,0,0,0-.373-.966,1.348,1.348,0,0,0-.962-.41h-.021A1.331,1.331,0,0,0-4963.753-599.939Zm1.349-13.835a1.36,1.36,0,0,0-.968.409,1.33,1.33,0,0,0-.381.96,1.342,1.342,0,0,0,1.351,1.332,1.338,1.338,0,0,0,1.35-1.356,1.351,1.351,0,0,0-1.342-1.345v-.2Z" transform="translate(4966.257 616.443)"/>
</svg>