<svg xmlns="http://www.w3.org/2000/svg" width="60" height="66.964" viewBox="0 0 60 66.964">
    <path fill="#fff" d="M557.261,706.547l-28.137-50.119-.018-.029q-.022-.037-.045-.073c-.014-.022-.029-.044-.044-.065s-.032-.043-.048-.064-.034-.043-.052-.064-.034-.038-.052-.057-.038-.041-.058-.06l-.056-.053-.062-.055-.063-.049c-.021-.016-.042-.032-.064-.047s-.045-.03-.068-.044l-.068-.042-.071-.038-.074-.036-.071-.031-.081-.032-.031-.012-.04-.012-.083-.024-.077-.019-.077-.015-.084-.013-.073-.008-.089-.006h-.07l-.091,0-.069,0-.092.01-.067.01-.093.018-.064.016c-.032.008-.063.017-.094.027l-.035.01-.027.011c-.03.011-.06.023-.09.035l-.063.027c-.027.013-.054.026-.081.04l-.064.035c-.025.014-.049.03-.073.045l-.063.041c-.023.016-.046.034-.069.051s-.039.03-.058.046-.044.038-.065.058-.036.033-.053.05-.04.042-.06.063-.033.036-.049.055-.036.044-.053.066-.032.041-.047.062-.03.044-.045.067-.03.047-.045.072l-.018.029-28.137,50.119a1.863,1.863,0,0,0,1.624,2.775h19.732l6.778,12.165c.012.021.025.041.037.061l.025.041q.042.065.088.125l.028.035q.039.049.081.094l.029.031q.057.059.118.112l.015.013c.04.034.081.065.123.1l.022.016q.071.049.147.092l.006,0,.033.017.065.034.059.027.048.021.084.031.026.009c.035.012.071.023.107.032l.006,0a1.854,1.854,0,0,0,.478.063h0a1.85,1.85,0,0,0,.477-.063l.009,0c.035-.01.069-.02.1-.031l.028-.01.082-.031.048-.021.059-.027.064-.033.034-.017.006,0q.075-.042.146-.092l.023-.016q.063-.045.122-.095l.016-.013c.041-.035.08-.073.118-.112l.029-.032q.042-.046.081-.094l.028-.035q.046-.06.088-.125l.025-.041c.012-.02.025-.04.037-.061l6.778-12.165h19.732a1.863,1.863,0,0,0,1.624-2.775ZM527.5,716.753l-5.376-9.649,5.376-36.858,5.376,36.858Zm-3.293-49.742L518.579,705.6H502.545ZM536.421,705.6l-5.628-38.585L552.455,705.6Z" transform="translate(-497.5 -655.479)"/>
</svg>
