<svg xmlns="http://www.w3.org/2000/svg" width="30" height="30" viewBox="0 0 30 30">
    <g transform="translate(0)">
        <path d="M0,0H30.336V30.336H0Z" fill="none"/>
        <path fill="#FF5A00" d="M14.64,2A12.64,12.64,0,1,0,27.28,14.64,12.645,12.645,0,0,0,14.64,2ZM8.409,22.578c.544-1.138,3.855-2.25,6.232-2.25s5.7,1.112,6.232,2.25a10.018,10.018,0,0,1-12.463,0Zm14.271-1.833c-1.808-2.2-6.194-2.945-8.039-2.945s-6.232.746-8.039,2.945a10.112,10.112,0,1,1,16.078,0ZM14.64,7.056a4.424,4.424,0,1,0,4.424,4.424A4.413,4.413,0,0,0,14.64,7.056Zm0,6.32a1.9,1.9,0,1,1,1.9-1.9A1.893,1.893,0,0,1,14.64,13.376Z" transform="translate(0.528 0.528)"/>
    </g>
</svg>
