<svg xmlns="http://www.w3.org/2000/svg" width="25.526" height="25.526" viewBox="0 0 25.526 25.526">
    <path fill="none" d="M0,0H25.526V25.526H0Z"/>
    <path fill="#4b89dc" d="M20.018,3.127H18.954V1H16.827V3.127H8.318V1H6.191V3.127H5.127A2.133,2.133,0,0,0,3,5.254v14.89a2.133,2.133,0,0,0,2.127,2.127h14.89a2.133,2.133,0,0,0,2.127-2.127V5.254A2.133,2.133,0,0,0,20.018,3.127Zm0,17.018H5.127V9.509h14.89ZM5.127,7.382V5.254h14.89V7.382Zm5.914,11.125L17.348,12.2l-1.127-1.127-5.18,5.18L8.8,14.008,7.669,15.135Z" transform="translate(0.191 0.064)"/>
</svg>