<svg xmlns="http://www.w3.org/2000/svg" width="24.386" height="24.386" viewBox="0 0 24.386 24.386">
    <path fill="none" d="M0,0H24.386V24.386H0Z"/>
    <path fill="#ff5a00" d="M19.648,8.316H18.53V6.226A5.418,5.418,0,0,0,12.942,1,5.418,5.418,0,0,0,7.353,6.226v2.09H6.235A2.173,2.173,0,0,0,4,10.406V20.857a2.173,2.173,0,0,0,2.235,2.09H19.648a2.173,2.173,0,0,0,2.235-2.09V10.406A2.173,2.173,0,0,0,19.648,8.316ZM9.589,6.226A3.245,3.245,0,0,1,12.942,3.09a3.245,3.245,0,0,1,3.353,3.135v2.09H9.589ZM19.648,20.857H6.235V10.406H19.648Zm-6.706-3.135a2.173,2.173,0,0,0,2.235-2.09,2.24,2.24,0,0,0-4.471,0A2.173,2.173,0,0,0,12.942,17.722Z" transform="translate(-0.748 -0.187)"/>
</svg>
