<svg xmlns="http://www.w3.org/2000/svg" width="30.561" height="26.208" viewBox="0 0 30.561 26.208">
    <g transform="translate(0 -5.595)">
        <g transform="translate(0 5.595)">
            <circle fill="#ff5a00" cx="1.413" cy="1.413" r="1.413" transform="translate(13.867 18.884)"/>
            <path fill="#ff5a00" d="M37.57,34.294a.778.778,0,0,0,.778-.778V26.125a.778.778,0,1,0-1.556,0v7.391A.778.778,0,0,0,37.57,34.294Z" transform="translate(-22.48 -17.663)"/>
            <path fill="#ff5a00" d="M18.116,7.908l-.035-.055c-.72-1.11-1.465-2.259-2.8-2.259-1.392,0-2.12,1.165-2.824,2.292l-.029.046L.108,28.808A.537.537,0,0,0,0,29.129,2.673,2.673,0,0,0,2.718,31.8H27.843a2.673,2.673,0,0,0,2.718-2.674.653.653,0,0,0-.108-.358Zm9.726,22.339H2.718a1.126,1.126,0,0,1-1.148-.931l12.2-20.641c.6-.967,1-1.542,1.5-1.542s.956.727,1.495,1.558L28.99,29.311A1.129,1.129,0,0,1,27.843,30.247Z" transform="translate(0 -5.595)"/>
        </g>
    </g>
</svg>
